G04 EAGLE Gerber RS-274X export*
G75*
%MOMM*%
%FSLAX34Y34*%
%LPD*%
%INTop Copper*%
%IPPOS*%
%AMOC8*
5,1,8,0,0,1.08239X$1,22.5*%
G01*
%ADD10R,3.900000X3.900000*%
%ADD11R,3.200000X3.200000*%
%ADD12R,1.500000X1.300000*%
%ADD13R,2.032000X0.660400*%
%ADD14R,1.200000X1.200000*%
%ADD15R,1.100000X1.400000*%
%ADD16R,1.400000X1.100000*%
%ADD17C,0.304800*%
%ADD18C,0.914400*%

G36*
X328698Y10164D02*
X328698Y10164D01*
X328717Y10162D01*
X328819Y10184D01*
X328921Y10200D01*
X328938Y10210D01*
X328958Y10214D01*
X329047Y10267D01*
X329138Y10316D01*
X329152Y10330D01*
X329169Y10340D01*
X329236Y10419D01*
X329308Y10494D01*
X329316Y10512D01*
X329329Y10527D01*
X329368Y10623D01*
X329411Y10717D01*
X329413Y10737D01*
X329421Y10755D01*
X329439Y10922D01*
X329439Y505447D01*
X329432Y505493D01*
X329434Y505538D01*
X329412Y505613D01*
X329400Y505690D01*
X329378Y505731D01*
X329365Y505775D01*
X329321Y505839D01*
X329284Y505907D01*
X329251Y505939D01*
X329225Y505977D01*
X329163Y506023D01*
X329106Y506077D01*
X329064Y506096D01*
X329028Y506123D01*
X328954Y506148D01*
X328883Y506180D01*
X328837Y506185D01*
X328794Y506200D01*
X328716Y506199D01*
X328639Y506207D01*
X328594Y506198D01*
X328548Y506197D01*
X328416Y506159D01*
X328398Y506155D01*
X328394Y506153D01*
X328387Y506151D01*
X327007Y505579D01*
X317993Y505579D01*
X309664Y509029D01*
X303289Y515404D01*
X299839Y523733D01*
X299839Y532747D01*
X300684Y534787D01*
X300694Y534831D01*
X300714Y534873D01*
X300722Y534950D01*
X300740Y535026D01*
X300736Y535072D01*
X300741Y535117D01*
X300724Y535194D01*
X300717Y535271D01*
X300698Y535313D01*
X300689Y535358D01*
X300649Y535425D01*
X300617Y535496D01*
X300586Y535530D01*
X300562Y535569D01*
X300503Y535620D01*
X300451Y535677D01*
X300410Y535699D01*
X300376Y535729D01*
X300303Y535758D01*
X300235Y535795D01*
X300190Y535804D01*
X300147Y535821D01*
X300011Y535836D01*
X299993Y535839D01*
X299988Y535838D01*
X299981Y535839D01*
X23622Y535839D01*
X23602Y535836D01*
X23583Y535838D01*
X23481Y535816D01*
X23379Y535800D01*
X23362Y535790D01*
X23342Y535786D01*
X23253Y535733D01*
X23162Y535684D01*
X23148Y535670D01*
X23131Y535660D01*
X23064Y535581D01*
X22992Y535506D01*
X22984Y535488D01*
X22971Y535473D01*
X22932Y535377D01*
X22889Y535283D01*
X22887Y535263D01*
X22879Y535245D01*
X22861Y535078D01*
X22861Y41779D01*
X22868Y41734D01*
X22866Y41688D01*
X22888Y41613D01*
X22900Y41536D01*
X22922Y41496D01*
X22935Y41452D01*
X22979Y41387D01*
X23016Y41319D01*
X23049Y41287D01*
X23075Y41250D01*
X23138Y41203D01*
X23194Y41149D01*
X23236Y41130D01*
X23272Y41103D01*
X23346Y41079D01*
X23417Y41046D01*
X23463Y41041D01*
X23506Y41027D01*
X23584Y41027D01*
X23661Y41019D01*
X23706Y41028D01*
X23752Y41029D01*
X23884Y41067D01*
X23902Y41071D01*
X23906Y41074D01*
X23913Y41076D01*
X28513Y42981D01*
X37527Y42981D01*
X45856Y39531D01*
X52231Y33156D01*
X55681Y24827D01*
X55681Y15813D01*
X53776Y11213D01*
X53765Y11169D01*
X53746Y11127D01*
X53737Y11050D01*
X53719Y10974D01*
X53724Y10928D01*
X53719Y10883D01*
X53735Y10806D01*
X53743Y10729D01*
X53761Y10687D01*
X53771Y10642D01*
X53811Y10575D01*
X53843Y10504D01*
X53874Y10470D01*
X53897Y10431D01*
X53956Y10380D01*
X54009Y10323D01*
X54049Y10301D01*
X54084Y10271D01*
X54156Y10242D01*
X54224Y10205D01*
X54270Y10196D01*
X54312Y10179D01*
X54448Y10164D01*
X54467Y10161D01*
X54472Y10162D01*
X54479Y10161D01*
X328678Y10161D01*
X328698Y10164D01*
G37*
%LPC*%
G36*
X40648Y95759D02*
X40648Y95759D01*
X39159Y97248D01*
X39159Y131352D01*
X40648Y132841D01*
X74752Y132841D01*
X76241Y131352D01*
X76241Y119380D01*
X76244Y119360D01*
X76242Y119341D01*
X76264Y119239D01*
X76280Y119137D01*
X76290Y119120D01*
X76294Y119100D01*
X76347Y119011D01*
X76396Y118920D01*
X76410Y118906D01*
X76420Y118889D01*
X76499Y118822D01*
X76574Y118750D01*
X76592Y118742D01*
X76607Y118729D01*
X76703Y118690D01*
X76797Y118647D01*
X76817Y118645D01*
X76835Y118637D01*
X77002Y118619D01*
X84615Y118619D01*
X84705Y118633D01*
X84796Y118641D01*
X84826Y118653D01*
X84858Y118658D01*
X84938Y118701D01*
X85022Y118737D01*
X85054Y118763D01*
X85075Y118774D01*
X85097Y118797D01*
X85153Y118842D01*
X110266Y143955D01*
X110319Y144029D01*
X110379Y144098D01*
X110391Y144128D01*
X110410Y144154D01*
X110437Y144241D01*
X110471Y144326D01*
X110475Y144367D01*
X110482Y144389D01*
X110481Y144422D01*
X110489Y144493D01*
X110489Y322994D01*
X111061Y323566D01*
X111073Y323582D01*
X111089Y323594D01*
X111145Y323682D01*
X111205Y323765D01*
X111211Y323784D01*
X111222Y323801D01*
X111247Y323902D01*
X111277Y324001D01*
X111277Y324020D01*
X111282Y324040D01*
X111274Y324143D01*
X111271Y324246D01*
X111264Y324265D01*
X111262Y324285D01*
X111222Y324380D01*
X111186Y324477D01*
X111174Y324493D01*
X111166Y324511D01*
X111061Y324642D01*
X84835Y350868D01*
X84835Y395384D01*
X120713Y431262D01*
X120725Y431278D01*
X120741Y431290D01*
X120797Y431378D01*
X120857Y431461D01*
X120863Y431480D01*
X120874Y431497D01*
X120899Y431598D01*
X120929Y431697D01*
X120929Y431716D01*
X120934Y431736D01*
X120926Y431839D01*
X120923Y431942D01*
X120916Y431961D01*
X120914Y431981D01*
X120874Y432076D01*
X120838Y432173D01*
X120826Y432189D01*
X120818Y432207D01*
X120713Y432338D01*
X71373Y481678D01*
X71373Y485998D01*
X71370Y486018D01*
X71372Y486037D01*
X71350Y486139D01*
X71334Y486241D01*
X71324Y486258D01*
X71320Y486278D01*
X71267Y486367D01*
X71218Y486458D01*
X71204Y486472D01*
X71194Y486489D01*
X71115Y486556D01*
X71040Y486628D01*
X71022Y486636D01*
X71007Y486649D01*
X70911Y486688D01*
X70817Y486731D01*
X70797Y486733D01*
X70779Y486741D01*
X70612Y486759D01*
X66948Y486759D01*
X65459Y488248D01*
X65459Y502352D01*
X66948Y503841D01*
X81052Y503841D01*
X82541Y502352D01*
X82541Y488248D01*
X81052Y486759D01*
X80264Y486759D01*
X80244Y486756D01*
X80225Y486758D01*
X80123Y486736D01*
X80021Y486720D01*
X80004Y486710D01*
X79984Y486706D01*
X79895Y486653D01*
X79804Y486604D01*
X79790Y486590D01*
X79773Y486580D01*
X79706Y486501D01*
X79634Y486426D01*
X79626Y486408D01*
X79613Y486393D01*
X79574Y486297D01*
X79531Y486203D01*
X79529Y486183D01*
X79521Y486165D01*
X79503Y485998D01*
X79503Y485361D01*
X79517Y485271D01*
X79525Y485180D01*
X79537Y485150D01*
X79542Y485118D01*
X79585Y485037D01*
X79621Y484954D01*
X79647Y484922D01*
X79658Y484901D01*
X79681Y484879D01*
X79726Y484823D01*
X128461Y436088D01*
X131288Y433261D01*
X164308Y400241D01*
X164324Y400229D01*
X164336Y400213D01*
X164424Y400157D01*
X164507Y400097D01*
X164526Y400091D01*
X164543Y400080D01*
X164644Y400055D01*
X164743Y400025D01*
X164762Y400025D01*
X164782Y400020D01*
X164885Y400028D01*
X164988Y400031D01*
X165007Y400038D01*
X165027Y400040D01*
X165122Y400080D01*
X165219Y400116D01*
X165235Y400128D01*
X165253Y400136D01*
X165384Y400241D01*
X205072Y439929D01*
X236380Y439929D01*
X241555Y434754D01*
X241555Y429402D01*
X241558Y429382D01*
X241556Y429363D01*
X241578Y429261D01*
X241594Y429159D01*
X241604Y429142D01*
X241608Y429122D01*
X241661Y429033D01*
X241710Y428942D01*
X241724Y428928D01*
X241734Y428911D01*
X241813Y428844D01*
X241888Y428772D01*
X241906Y428764D01*
X241921Y428751D01*
X242017Y428712D01*
X242111Y428669D01*
X242131Y428667D01*
X242149Y428659D01*
X242316Y428641D01*
X245152Y428641D01*
X246641Y427152D01*
X246641Y411048D01*
X245152Y409559D01*
X232048Y409559D01*
X230559Y411048D01*
X230559Y427152D01*
X232048Y428641D01*
X232664Y428641D01*
X232684Y428644D01*
X232703Y428642D01*
X232805Y428664D01*
X232907Y428680D01*
X232924Y428690D01*
X232944Y428694D01*
X233033Y428747D01*
X233124Y428796D01*
X233138Y428810D01*
X233155Y428820D01*
X233222Y428899D01*
X233294Y428974D01*
X233302Y428992D01*
X233315Y429007D01*
X233354Y429103D01*
X233397Y429197D01*
X233399Y429217D01*
X233407Y429235D01*
X233425Y429402D01*
X233425Y431038D01*
X233422Y431058D01*
X233424Y431077D01*
X233402Y431179D01*
X233386Y431281D01*
X233376Y431298D01*
X233372Y431318D01*
X233319Y431407D01*
X233270Y431498D01*
X233256Y431512D01*
X233246Y431529D01*
X233167Y431596D01*
X233092Y431668D01*
X233074Y431676D01*
X233059Y431689D01*
X232963Y431728D01*
X232869Y431771D01*
X232849Y431773D01*
X232831Y431781D01*
X232664Y431799D01*
X208755Y431799D01*
X208665Y431785D01*
X208574Y431777D01*
X208544Y431765D01*
X208512Y431760D01*
X208432Y431717D01*
X208348Y431681D01*
X208316Y431655D01*
X208295Y431644D01*
X208273Y431621D01*
X208217Y431576D01*
X171133Y394492D01*
X171121Y394476D01*
X171105Y394464D01*
X171049Y394376D01*
X170989Y394293D01*
X170983Y394274D01*
X170972Y394257D01*
X170947Y394156D01*
X170917Y394057D01*
X170917Y394038D01*
X170912Y394018D01*
X170920Y393915D01*
X170923Y393812D01*
X170930Y393793D01*
X170932Y393773D01*
X170972Y393678D01*
X171008Y393581D01*
X171020Y393565D01*
X171028Y393547D01*
X171133Y393416D01*
X194247Y370302D01*
X196533Y368016D01*
X196607Y367963D01*
X196676Y367903D01*
X196706Y367891D01*
X196732Y367872D01*
X196819Y367845D01*
X196904Y367811D01*
X196945Y367807D01*
X196967Y367800D01*
X197000Y367801D01*
X197071Y367793D01*
X207046Y367793D01*
X208535Y366304D01*
X208535Y357596D01*
X208347Y357408D01*
X208306Y357350D01*
X208256Y357298D01*
X208234Y357251D01*
X208204Y357209D01*
X208183Y357140D01*
X208153Y357075D01*
X208147Y357023D01*
X208131Y356973D01*
X208133Y356902D01*
X208125Y356831D01*
X208137Y356780D01*
X208138Y356728D01*
X208162Y356660D01*
X208178Y356590D01*
X208204Y356545D01*
X208222Y356497D01*
X208267Y356441D01*
X208304Y356379D01*
X208343Y356345D01*
X208376Y356305D01*
X208436Y356266D01*
X208491Y356219D01*
X208539Y356200D01*
X208583Y356172D01*
X208652Y356154D01*
X208719Y356127D01*
X208790Y356119D01*
X208821Y356111D01*
X208845Y356113D01*
X208886Y356109D01*
X213106Y356109D01*
X213126Y356112D01*
X213145Y356110D01*
X213247Y356132D01*
X213349Y356148D01*
X213366Y356158D01*
X213386Y356162D01*
X213475Y356215D01*
X213566Y356264D01*
X213580Y356278D01*
X213597Y356288D01*
X213664Y356367D01*
X213736Y356442D01*
X213744Y356460D01*
X213757Y356475D01*
X213796Y356571D01*
X213839Y356665D01*
X213841Y356685D01*
X213849Y356703D01*
X213867Y356870D01*
X213867Y408798D01*
X213864Y408818D01*
X213866Y408837D01*
X213844Y408939D01*
X213828Y409041D01*
X213818Y409058D01*
X213814Y409078D01*
X213761Y409167D01*
X213712Y409258D01*
X213698Y409272D01*
X213688Y409289D01*
X213609Y409356D01*
X213534Y409428D01*
X213516Y409436D01*
X213501Y409449D01*
X213405Y409488D01*
X213311Y409531D01*
X213291Y409533D01*
X213273Y409541D01*
X213106Y409559D01*
X212048Y409559D01*
X210559Y411048D01*
X210559Y427152D01*
X212048Y428641D01*
X225152Y428641D01*
X226641Y427152D01*
X226641Y411048D01*
X225152Y409559D01*
X222758Y409559D01*
X222738Y409556D01*
X222719Y409558D01*
X222617Y409536D01*
X222515Y409520D01*
X222498Y409510D01*
X222478Y409506D01*
X222389Y409453D01*
X222298Y409404D01*
X222284Y409390D01*
X222267Y409380D01*
X222200Y409301D01*
X222128Y409226D01*
X222120Y409208D01*
X222107Y409193D01*
X222068Y409097D01*
X222025Y409003D01*
X222023Y408983D01*
X222015Y408965D01*
X221997Y408798D01*
X221997Y356870D01*
X222000Y356850D01*
X221998Y356831D01*
X222020Y356729D01*
X222036Y356627D01*
X222046Y356610D01*
X222050Y356590D01*
X222103Y356501D01*
X222152Y356410D01*
X222166Y356396D01*
X222176Y356379D01*
X222255Y356312D01*
X222330Y356240D01*
X222348Y356232D01*
X222363Y356219D01*
X222459Y356180D01*
X222553Y356137D01*
X222573Y356135D01*
X222591Y356127D01*
X222758Y356109D01*
X256398Y356109D01*
X256418Y356112D01*
X256437Y356110D01*
X256539Y356132D01*
X256641Y356148D01*
X256658Y356158D01*
X256678Y356162D01*
X256767Y356215D01*
X256858Y356264D01*
X256872Y356278D01*
X256889Y356288D01*
X256956Y356367D01*
X257028Y356442D01*
X257036Y356460D01*
X257049Y356475D01*
X257088Y356571D01*
X257131Y356665D01*
X257133Y356685D01*
X257141Y356703D01*
X257159Y356870D01*
X257159Y359452D01*
X258648Y360941D01*
X274752Y360941D01*
X276241Y359452D01*
X276241Y346348D01*
X274752Y344859D01*
X258648Y344859D01*
X257159Y346348D01*
X257159Y347218D01*
X257156Y347238D01*
X257158Y347257D01*
X257136Y347359D01*
X257120Y347461D01*
X257110Y347478D01*
X257106Y347498D01*
X257053Y347587D01*
X257004Y347678D01*
X256990Y347692D01*
X256980Y347709D01*
X256901Y347776D01*
X256826Y347848D01*
X256808Y347856D01*
X256793Y347869D01*
X256697Y347908D01*
X256603Y347951D01*
X256583Y347953D01*
X256565Y347961D01*
X256398Y347979D01*
X211549Y347979D01*
X211459Y347965D01*
X211368Y347957D01*
X211338Y347945D01*
X211306Y347940D01*
X211226Y347897D01*
X211142Y347861D01*
X211110Y347835D01*
X211089Y347824D01*
X211067Y347801D01*
X211011Y347756D01*
X208758Y345503D01*
X208705Y345429D01*
X208645Y345360D01*
X208633Y345330D01*
X208614Y345304D01*
X208587Y345217D01*
X208553Y345132D01*
X208549Y345091D01*
X208542Y345068D01*
X208543Y345036D01*
X208535Y344965D01*
X208535Y344896D01*
X207077Y343438D01*
X207066Y343422D01*
X207050Y343410D01*
X207022Y343366D01*
X206986Y343328D01*
X206964Y343281D01*
X206934Y343239D01*
X206928Y343220D01*
X206917Y343203D01*
X206904Y343152D01*
X206883Y343105D01*
X206877Y343053D01*
X206862Y343003D01*
X206862Y342984D01*
X206857Y342964D01*
X206861Y342912D01*
X206856Y342861D01*
X206867Y342810D01*
X206868Y342758D01*
X206875Y342739D01*
X206876Y342719D01*
X206897Y342671D01*
X206908Y342620D01*
X206934Y342576D01*
X206952Y342527D01*
X206965Y342511D01*
X206973Y342493D01*
X207017Y342437D01*
X207034Y342409D01*
X207052Y342394D01*
X207077Y342362D01*
X207094Y342350D01*
X207106Y342335D01*
X207166Y342296D01*
X207221Y342249D01*
X207251Y342237D01*
X207277Y342218D01*
X207296Y342212D01*
X207313Y342202D01*
X207382Y342184D01*
X207449Y342157D01*
X207490Y342153D01*
X207512Y342146D01*
X207532Y342146D01*
X207551Y342141D01*
X207575Y342143D01*
X207616Y342139D01*
X208440Y342139D01*
X211044Y339535D01*
X213805Y336774D01*
X213879Y336721D01*
X213948Y336661D01*
X213978Y336649D01*
X214004Y336630D01*
X214091Y336603D01*
X214176Y336569D01*
X214217Y336565D01*
X214239Y336558D01*
X214272Y336559D01*
X214343Y336551D01*
X256398Y336551D01*
X256418Y336554D01*
X256437Y336552D01*
X256539Y336574D01*
X256641Y336590D01*
X256658Y336600D01*
X256678Y336604D01*
X256767Y336657D01*
X256858Y336706D01*
X256872Y336720D01*
X256889Y336730D01*
X256956Y336809D01*
X257028Y336884D01*
X257036Y336902D01*
X257049Y336917D01*
X257088Y337013D01*
X257131Y337107D01*
X257133Y337127D01*
X257141Y337145D01*
X257159Y337312D01*
X257159Y339452D01*
X258648Y340941D01*
X274752Y340941D01*
X276241Y339452D01*
X276241Y326348D01*
X274752Y324859D01*
X258648Y324859D01*
X257159Y326348D01*
X257159Y327660D01*
X257156Y327680D01*
X257158Y327699D01*
X257136Y327801D01*
X257120Y327903D01*
X257110Y327920D01*
X257106Y327940D01*
X257053Y328029D01*
X257004Y328120D01*
X256990Y328134D01*
X256980Y328151D01*
X256901Y328218D01*
X256826Y328290D01*
X256808Y328298D01*
X256793Y328311D01*
X256697Y328350D01*
X256603Y328393D01*
X256583Y328395D01*
X256565Y328403D01*
X256398Y328421D01*
X219964Y328421D01*
X219944Y328418D01*
X219925Y328420D01*
X219823Y328398D01*
X219721Y328382D01*
X219704Y328372D01*
X219684Y328368D01*
X219595Y328315D01*
X219504Y328266D01*
X219490Y328252D01*
X219473Y328242D01*
X219406Y328163D01*
X219334Y328088D01*
X219326Y328070D01*
X219313Y328055D01*
X219274Y327959D01*
X219231Y327865D01*
X219229Y327845D01*
X219221Y327827D01*
X219203Y327660D01*
X219203Y233012D01*
X202852Y216661D01*
X201302Y216661D01*
X201282Y216658D01*
X201263Y216660D01*
X201161Y216638D01*
X201059Y216622D01*
X201042Y216612D01*
X201022Y216608D01*
X200933Y216555D01*
X200842Y216506D01*
X200828Y216492D01*
X200811Y216482D01*
X200744Y216403D01*
X200672Y216328D01*
X200664Y216310D01*
X200651Y216295D01*
X200612Y216199D01*
X200569Y216105D01*
X200567Y216085D01*
X200559Y216067D01*
X200541Y215900D01*
X200541Y212548D01*
X199052Y211059D01*
X181948Y211059D01*
X180459Y212548D01*
X180459Y227652D01*
X180876Y228069D01*
X180902Y228105D01*
X180934Y228134D01*
X180973Y228204D01*
X181019Y228269D01*
X181032Y228311D01*
X181054Y228349D01*
X181068Y228427D01*
X181092Y228504D01*
X181091Y228548D01*
X181099Y228591D01*
X181088Y228670D01*
X181085Y228750D01*
X181070Y228791D01*
X181064Y228834D01*
X181027Y228919D01*
X181006Y228968D01*
X181001Y228981D01*
X180999Y228983D01*
X180997Y228988D01*
X180632Y229619D01*
X180459Y230266D01*
X180459Y235577D01*
X189738Y235577D01*
X189758Y235580D01*
X189777Y235578D01*
X189879Y235600D01*
X189981Y235617D01*
X189998Y235626D01*
X190018Y235630D01*
X190107Y235683D01*
X190198Y235732D01*
X190212Y235746D01*
X190229Y235756D01*
X190296Y235835D01*
X190367Y235910D01*
X190376Y235928D01*
X190389Y235943D01*
X190428Y236039D01*
X190471Y236133D01*
X190473Y236153D01*
X190481Y236171D01*
X190499Y236338D01*
X190499Y237101D01*
X190501Y237101D01*
X190501Y236338D01*
X190504Y236318D01*
X190502Y236299D01*
X190524Y236197D01*
X190541Y236095D01*
X190550Y236078D01*
X190554Y236058D01*
X190607Y235969D01*
X190656Y235878D01*
X190670Y235864D01*
X190680Y235847D01*
X190759Y235780D01*
X190834Y235709D01*
X190852Y235700D01*
X190867Y235687D01*
X190963Y235648D01*
X191057Y235605D01*
X191077Y235603D01*
X191095Y235595D01*
X191262Y235577D01*
X200541Y235577D01*
X200541Y230266D01*
X200368Y229619D01*
X200003Y228988D01*
X199988Y228947D01*
X199964Y228910D01*
X199944Y228833D01*
X199916Y228758D01*
X199914Y228714D01*
X199904Y228672D01*
X199910Y228592D01*
X199907Y228512D01*
X199920Y228470D01*
X199923Y228426D01*
X199954Y228353D01*
X199977Y228276D01*
X200002Y228240D01*
X200019Y228200D01*
X200110Y228086D01*
X200118Y228075D01*
X200121Y228073D01*
X200124Y228069D01*
X200547Y227646D01*
X200552Y227614D01*
X200554Y227542D01*
X200572Y227494D01*
X200580Y227442D01*
X200614Y227379D01*
X200639Y227311D01*
X200671Y227271D01*
X200696Y227225D01*
X200748Y227175D01*
X200792Y227119D01*
X200836Y227091D01*
X200874Y227055D01*
X200939Y227025D01*
X200999Y226986D01*
X201050Y226974D01*
X201097Y226952D01*
X201168Y226944D01*
X201238Y226926D01*
X201290Y226930D01*
X201341Y226925D01*
X201412Y226940D01*
X201483Y226946D01*
X201531Y226966D01*
X201582Y226977D01*
X201643Y227014D01*
X201709Y227042D01*
X201765Y227087D01*
X201793Y227103D01*
X201808Y227121D01*
X201840Y227147D01*
X210850Y236157D01*
X210903Y236231D01*
X210963Y236300D01*
X210975Y236330D01*
X210994Y236356D01*
X211021Y236443D01*
X211055Y236528D01*
X211059Y236569D01*
X211066Y236592D01*
X211065Y236624D01*
X211073Y236695D01*
X211073Y327693D01*
X211059Y327783D01*
X211051Y327874D01*
X211039Y327904D01*
X211034Y327936D01*
X210991Y328016D01*
X210955Y328100D01*
X210929Y328132D01*
X210918Y328153D01*
X210895Y328175D01*
X210850Y328231D01*
X208249Y330833D01*
X208233Y330845D01*
X208220Y330860D01*
X208133Y330916D01*
X208049Y330976D01*
X208030Y330982D01*
X208013Y330993D01*
X207913Y331018D01*
X207814Y331049D01*
X207794Y331048D01*
X207775Y331053D01*
X207672Y331045D01*
X207568Y331042D01*
X207549Y331036D01*
X207530Y331034D01*
X207434Y330994D01*
X207337Y330958D01*
X207321Y330946D01*
X207303Y330938D01*
X207172Y330833D01*
X207078Y330738D01*
X207066Y330722D01*
X207050Y330710D01*
X206994Y330623D01*
X206934Y330539D01*
X206928Y330520D01*
X206917Y330503D01*
X206892Y330402D01*
X206862Y330304D01*
X206862Y330284D01*
X206857Y330264D01*
X206865Y330161D01*
X206868Y330058D01*
X206875Y330039D01*
X206876Y330019D01*
X206917Y329924D01*
X206952Y329827D01*
X206965Y329811D01*
X206973Y329793D01*
X207077Y329662D01*
X208535Y328204D01*
X208535Y319496D01*
X207046Y318007D01*
X196055Y318007D01*
X195965Y317993D01*
X195874Y317985D01*
X195844Y317973D01*
X195812Y317968D01*
X195732Y317925D01*
X195648Y317889D01*
X195616Y317863D01*
X195595Y317852D01*
X195573Y317829D01*
X195517Y317784D01*
X156688Y278955D01*
X156635Y278881D01*
X156575Y278812D01*
X156563Y278782D01*
X156544Y278756D01*
X156517Y278669D01*
X156483Y278584D01*
X156479Y278543D01*
X156472Y278520D01*
X156473Y278488D01*
X156465Y278417D01*
X156465Y208026D01*
X156468Y208006D01*
X156466Y207987D01*
X156488Y207885D01*
X156504Y207783D01*
X156514Y207766D01*
X156518Y207746D01*
X156571Y207657D01*
X156620Y207566D01*
X156634Y207552D01*
X156644Y207535D01*
X156723Y207468D01*
X156798Y207396D01*
X156816Y207388D01*
X156831Y207375D01*
X156927Y207336D01*
X157021Y207293D01*
X157041Y207291D01*
X157059Y207283D01*
X157226Y207265D01*
X247801Y207265D01*
X247891Y207279D01*
X247982Y207287D01*
X248012Y207299D01*
X248044Y207304D01*
X248124Y207347D01*
X248208Y207383D01*
X248240Y207409D01*
X248261Y207420D01*
X248283Y207443D01*
X248339Y207488D01*
X256436Y215585D01*
X256489Y215659D01*
X256549Y215728D01*
X256561Y215758D01*
X256580Y215784D01*
X256607Y215871D01*
X256641Y215956D01*
X256645Y215997D01*
X256652Y216020D01*
X256651Y216052D01*
X256659Y216123D01*
X256659Y227652D01*
X257076Y228069D01*
X257102Y228105D01*
X257134Y228134D01*
X257173Y228204D01*
X257219Y228269D01*
X257232Y228311D01*
X257254Y228349D01*
X257268Y228427D01*
X257292Y228504D01*
X257291Y228548D01*
X257299Y228591D01*
X257288Y228670D01*
X257285Y228750D01*
X257270Y228791D01*
X257264Y228834D01*
X257227Y228919D01*
X257206Y228968D01*
X257201Y228981D01*
X257199Y228983D01*
X257197Y228988D01*
X256832Y229619D01*
X256659Y230266D01*
X256659Y235577D01*
X265938Y235577D01*
X265958Y235580D01*
X265977Y235578D01*
X266079Y235600D01*
X266181Y235617D01*
X266198Y235626D01*
X266218Y235630D01*
X266307Y235683D01*
X266398Y235732D01*
X266412Y235746D01*
X266429Y235756D01*
X266496Y235835D01*
X266567Y235910D01*
X266576Y235928D01*
X266589Y235943D01*
X266628Y236039D01*
X266671Y236133D01*
X266673Y236153D01*
X266681Y236171D01*
X266699Y236338D01*
X266699Y237101D01*
X266701Y237101D01*
X266701Y236338D01*
X266704Y236318D01*
X266702Y236299D01*
X266724Y236197D01*
X266741Y236095D01*
X266750Y236078D01*
X266754Y236058D01*
X266807Y235969D01*
X266856Y235878D01*
X266870Y235864D01*
X266880Y235847D01*
X266959Y235780D01*
X267034Y235709D01*
X267052Y235700D01*
X267067Y235687D01*
X267163Y235648D01*
X267257Y235605D01*
X267277Y235603D01*
X267295Y235595D01*
X267462Y235577D01*
X276741Y235577D01*
X276741Y230266D01*
X276568Y229619D01*
X276203Y228988D01*
X276188Y228947D01*
X276164Y228910D01*
X276144Y228833D01*
X276116Y228758D01*
X276114Y228714D01*
X276104Y228672D01*
X276110Y228592D01*
X276107Y228512D01*
X276120Y228470D01*
X276123Y228426D01*
X276154Y228353D01*
X276177Y228276D01*
X276202Y228240D01*
X276219Y228200D01*
X276310Y228086D01*
X276318Y228075D01*
X276321Y228073D01*
X276324Y228069D01*
X276741Y227652D01*
X276741Y212548D01*
X275252Y211059D01*
X263723Y211059D01*
X263633Y211045D01*
X263542Y211037D01*
X263512Y211025D01*
X263480Y211020D01*
X263400Y210977D01*
X263316Y210941D01*
X263284Y210915D01*
X263263Y210904D01*
X263241Y210881D01*
X263185Y210836D01*
X251484Y199135D01*
X150716Y199135D01*
X148335Y201516D01*
X148335Y282100D01*
X150939Y284704D01*
X183894Y317658D01*
X183906Y317674D01*
X183921Y317687D01*
X183977Y317774D01*
X184037Y317858D01*
X184043Y317877D01*
X184054Y317894D01*
X184079Y317994D01*
X184110Y318093D01*
X184109Y318113D01*
X184114Y318132D01*
X184106Y318235D01*
X184103Y318339D01*
X184097Y318358D01*
X184095Y318378D01*
X184055Y318472D01*
X184019Y318570D01*
X184007Y318586D01*
X183999Y318604D01*
X183894Y318735D01*
X183133Y319496D01*
X183133Y328204D01*
X184591Y329662D01*
X184602Y329678D01*
X184618Y329690D01*
X184674Y329778D01*
X184734Y329861D01*
X184740Y329880D01*
X184751Y329897D01*
X184776Y329998D01*
X184806Y330097D01*
X184806Y330116D01*
X184811Y330136D01*
X184803Y330239D01*
X184800Y330342D01*
X184793Y330361D01*
X184792Y330381D01*
X184751Y330476D01*
X184716Y330573D01*
X184703Y330589D01*
X184695Y330607D01*
X184591Y330738D01*
X183133Y332196D01*
X183133Y337058D01*
X183130Y337078D01*
X183132Y337097D01*
X183110Y337199D01*
X183094Y337301D01*
X183084Y337318D01*
X183080Y337338D01*
X183027Y337427D01*
X182978Y337518D01*
X182964Y337532D01*
X182954Y337549D01*
X182875Y337616D01*
X182800Y337688D01*
X182782Y337696D01*
X182767Y337709D01*
X182671Y337748D01*
X182577Y337791D01*
X182557Y337793D01*
X182539Y337801D01*
X182372Y337819D01*
X182307Y337819D01*
X168814Y351312D01*
X168740Y351365D01*
X168671Y351425D01*
X168640Y351437D01*
X168614Y351456D01*
X168527Y351483D01*
X168442Y351517D01*
X168401Y351521D01*
X168379Y351528D01*
X168347Y351527D01*
X168276Y351535D01*
X149224Y351535D01*
X149134Y351521D01*
X149043Y351513D01*
X149014Y351501D01*
X148982Y351496D01*
X148901Y351453D01*
X148817Y351417D01*
X148785Y351391D01*
X148764Y351380D01*
X148742Y351357D01*
X148686Y351312D01*
X147893Y350519D01*
X147828Y350519D01*
X147808Y350516D01*
X147789Y350518D01*
X147687Y350496D01*
X147585Y350480D01*
X147568Y350470D01*
X147548Y350466D01*
X147459Y350413D01*
X147368Y350364D01*
X147354Y350350D01*
X147337Y350340D01*
X147270Y350261D01*
X147198Y350186D01*
X147190Y350168D01*
X147177Y350153D01*
X147138Y350057D01*
X147095Y349963D01*
X147093Y349943D01*
X147085Y349925D01*
X147067Y349758D01*
X147067Y344896D01*
X145609Y343438D01*
X145598Y343422D01*
X145582Y343410D01*
X145554Y343366D01*
X145518Y343328D01*
X145496Y343281D01*
X145466Y343239D01*
X145460Y343220D01*
X145449Y343203D01*
X145436Y343152D01*
X145415Y343105D01*
X145409Y343053D01*
X145394Y343003D01*
X145394Y342984D01*
X145389Y342964D01*
X145393Y342912D01*
X145388Y342861D01*
X145399Y342810D01*
X145400Y342758D01*
X145407Y342739D01*
X145408Y342719D01*
X145429Y342671D01*
X145440Y342620D01*
X145466Y342576D01*
X145484Y342527D01*
X145497Y342511D01*
X145505Y342493D01*
X145549Y342437D01*
X145566Y342409D01*
X145584Y342394D01*
X145609Y342362D01*
X145626Y342350D01*
X145638Y342335D01*
X145698Y342296D01*
X145753Y342249D01*
X145783Y342237D01*
X145809Y342218D01*
X145828Y342212D01*
X145845Y342202D01*
X145914Y342184D01*
X145981Y342157D01*
X146022Y342153D01*
X146044Y342146D01*
X146064Y342146D01*
X146083Y342141D01*
X146107Y342143D01*
X146148Y342139D01*
X147360Y342139D01*
X147451Y342153D01*
X147541Y342161D01*
X147571Y342173D01*
X147603Y342178D01*
X147684Y342221D01*
X147768Y342257D01*
X147800Y342283D01*
X147821Y342294D01*
X147843Y342317D01*
X147899Y342362D01*
X149641Y344104D01*
X152255Y345187D01*
X155085Y345187D01*
X157699Y344104D01*
X159700Y342103D01*
X160783Y339489D01*
X160783Y336659D01*
X159700Y334045D01*
X157699Y332044D01*
X155085Y330961D01*
X152255Y330961D01*
X149641Y332044D01*
X148366Y333319D01*
X148308Y333361D01*
X148256Y333410D01*
X148209Y333432D01*
X148167Y333462D01*
X148098Y333483D01*
X148033Y333514D01*
X147981Y333519D01*
X147931Y333535D01*
X147860Y333533D01*
X147789Y333541D01*
X147738Y333530D01*
X147686Y333528D01*
X147618Y333504D01*
X147548Y333489D01*
X147503Y333462D01*
X147455Y333444D01*
X147399Y333399D01*
X147337Y333362D01*
X147303Y333323D01*
X147263Y333290D01*
X147224Y333230D01*
X147177Y333175D01*
X147158Y333127D01*
X147130Y333083D01*
X147112Y333014D01*
X147085Y332947D01*
X147077Y332876D01*
X147069Y332845D01*
X147071Y332821D01*
X147067Y332781D01*
X147067Y332196D01*
X145609Y330738D01*
X145598Y330722D01*
X145582Y330710D01*
X145526Y330622D01*
X145466Y330539D01*
X145460Y330520D01*
X145449Y330503D01*
X145424Y330402D01*
X145394Y330303D01*
X145394Y330284D01*
X145389Y330264D01*
X145397Y330161D01*
X145400Y330058D01*
X145407Y330039D01*
X145408Y330019D01*
X145449Y329924D01*
X145484Y329827D01*
X145497Y329811D01*
X145505Y329793D01*
X145609Y329662D01*
X147067Y328204D01*
X147067Y319496D01*
X145578Y318007D01*
X123154Y318007D01*
X121614Y319546D01*
X121612Y319558D01*
X121559Y319647D01*
X121510Y319738D01*
X121496Y319752D01*
X121486Y319769D01*
X121407Y319836D01*
X121332Y319908D01*
X121314Y319916D01*
X121299Y319929D01*
X121203Y319968D01*
X121109Y320011D01*
X121089Y320013D01*
X121071Y320021D01*
X120904Y320039D01*
X119380Y320039D01*
X119360Y320036D01*
X119341Y320038D01*
X119239Y320016D01*
X119137Y320000D01*
X119120Y319990D01*
X119100Y319986D01*
X119011Y319933D01*
X118920Y319884D01*
X118906Y319870D01*
X118889Y319860D01*
X118822Y319781D01*
X118750Y319706D01*
X118742Y319688D01*
X118729Y319673D01*
X118690Y319577D01*
X118647Y319483D01*
X118645Y319463D01*
X118637Y319445D01*
X118619Y319278D01*
X118619Y147320D01*
X118622Y147300D01*
X118620Y147281D01*
X118642Y147179D01*
X118658Y147077D01*
X118668Y147060D01*
X118672Y147040D01*
X118725Y146951D01*
X118774Y146860D01*
X118788Y146846D01*
X118798Y146829D01*
X118877Y146762D01*
X118952Y146690D01*
X118970Y146682D01*
X118985Y146669D01*
X119081Y146630D01*
X119175Y146587D01*
X119195Y146585D01*
X119213Y146577D01*
X119380Y146559D01*
X186088Y146559D01*
X201860Y130787D01*
X201918Y130745D01*
X201970Y130695D01*
X202017Y130673D01*
X202059Y130643D01*
X202128Y130622D01*
X202193Y130592D01*
X202245Y130586D01*
X202295Y130571D01*
X202366Y130573D01*
X202437Y130565D01*
X202488Y130576D01*
X202540Y130577D01*
X202608Y130602D01*
X202678Y130617D01*
X202723Y130644D01*
X202771Y130662D01*
X202827Y130706D01*
X202889Y130743D01*
X202923Y130783D01*
X202963Y130815D01*
X203002Y130876D01*
X203049Y130930D01*
X203068Y130978D01*
X203096Y131022D01*
X203114Y131092D01*
X203141Y131158D01*
X203149Y131230D01*
X203157Y131261D01*
X203155Y131284D01*
X203159Y131325D01*
X203159Y131352D01*
X204648Y132841D01*
X238752Y132841D01*
X240241Y131352D01*
X240241Y97248D01*
X238752Y95759D01*
X204648Y95759D01*
X203159Y97248D01*
X203159Y117675D01*
X203145Y117765D01*
X203137Y117856D01*
X203125Y117886D01*
X203120Y117918D01*
X203077Y117998D01*
X203041Y118082D01*
X203015Y118114D01*
X203004Y118135D01*
X202981Y118157D01*
X202936Y118213D01*
X182943Y138206D01*
X182869Y138259D01*
X182800Y138319D01*
X182770Y138331D01*
X182744Y138350D01*
X182657Y138377D01*
X182572Y138411D01*
X182531Y138415D01*
X182508Y138422D01*
X182476Y138421D01*
X182405Y138429D01*
X116553Y138429D01*
X116463Y138415D01*
X116372Y138407D01*
X116342Y138395D01*
X116310Y138390D01*
X116230Y138347D01*
X116146Y138311D01*
X116114Y138285D01*
X116093Y138274D01*
X116071Y138251D01*
X116015Y138206D01*
X90902Y113093D01*
X88298Y110489D01*
X77002Y110489D01*
X76982Y110486D01*
X76963Y110488D01*
X76861Y110466D01*
X76759Y110450D01*
X76742Y110440D01*
X76722Y110436D01*
X76633Y110383D01*
X76542Y110334D01*
X76528Y110320D01*
X76511Y110310D01*
X76444Y110231D01*
X76372Y110156D01*
X76364Y110138D01*
X76351Y110123D01*
X76312Y110027D01*
X76269Y109933D01*
X76267Y109913D01*
X76259Y109895D01*
X76241Y109728D01*
X76241Y97248D01*
X74752Y95759D01*
X40648Y95759D01*
G37*
%LPD*%
G36*
X121404Y328183D02*
X121404Y328183D01*
X121495Y328191D01*
X121525Y328203D01*
X121557Y328208D01*
X121638Y328251D01*
X121722Y328287D01*
X121754Y328313D01*
X121774Y328324D01*
X121797Y328347D01*
X121853Y328392D01*
X123123Y329662D01*
X123134Y329678D01*
X123150Y329690D01*
X123206Y329778D01*
X123266Y329861D01*
X123272Y329880D01*
X123283Y329897D01*
X123308Y329998D01*
X123338Y330097D01*
X123338Y330116D01*
X123343Y330136D01*
X123335Y330239D01*
X123332Y330342D01*
X123325Y330361D01*
X123324Y330381D01*
X123283Y330476D01*
X123248Y330573D01*
X123235Y330589D01*
X123227Y330607D01*
X123123Y330738D01*
X121665Y332196D01*
X121665Y340904D01*
X123123Y342362D01*
X123134Y342378D01*
X123150Y342390D01*
X123206Y342478D01*
X123266Y342561D01*
X123272Y342580D01*
X123283Y342597D01*
X123308Y342698D01*
X123338Y342797D01*
X123338Y342816D01*
X123343Y342836D01*
X123335Y342939D01*
X123332Y343042D01*
X123325Y343061D01*
X123324Y343081D01*
X123283Y343176D01*
X123248Y343273D01*
X123235Y343289D01*
X123227Y343307D01*
X123123Y343438D01*
X121665Y344896D01*
X121665Y353604D01*
X123231Y355170D01*
X123300Y355266D01*
X123371Y355363D01*
X123372Y355367D01*
X123375Y355370D01*
X123409Y355483D01*
X123446Y355597D01*
X123446Y355601D01*
X123447Y355605D01*
X123444Y355724D01*
X123442Y355843D01*
X123441Y355847D01*
X123441Y355851D01*
X123400Y355963D01*
X123360Y356075D01*
X123358Y356078D01*
X123356Y356082D01*
X123282Y356176D01*
X123209Y356269D01*
X123205Y356272D01*
X123203Y356274D01*
X123191Y356282D01*
X123074Y356368D01*
X122646Y356615D01*
X122173Y357088D01*
X121838Y357667D01*
X121665Y358314D01*
X121665Y360427D01*
X133604Y360427D01*
X133624Y360430D01*
X133643Y360428D01*
X133745Y360450D01*
X133847Y360467D01*
X133864Y360476D01*
X133884Y360480D01*
X133973Y360533D01*
X134064Y360582D01*
X134078Y360596D01*
X134095Y360606D01*
X134162Y360685D01*
X134233Y360760D01*
X134242Y360778D01*
X134255Y360793D01*
X134294Y360889D01*
X134337Y360983D01*
X134339Y361003D01*
X134347Y361021D01*
X134365Y361188D01*
X134365Y361951D01*
X134367Y361951D01*
X134367Y361188D01*
X134370Y361168D01*
X134368Y361149D01*
X134390Y361047D01*
X134407Y360945D01*
X134416Y360928D01*
X134420Y360908D01*
X134473Y360819D01*
X134522Y360728D01*
X134536Y360714D01*
X134546Y360697D01*
X134625Y360630D01*
X134700Y360559D01*
X134718Y360550D01*
X134733Y360537D01*
X134829Y360498D01*
X134923Y360455D01*
X134943Y360453D01*
X134961Y360445D01*
X135128Y360427D01*
X147067Y360427D01*
X147067Y360426D01*
X147070Y360406D01*
X147068Y360387D01*
X147090Y360285D01*
X147106Y360183D01*
X147116Y360166D01*
X147120Y360146D01*
X147173Y360057D01*
X147222Y359966D01*
X147236Y359952D01*
X147246Y359935D01*
X147325Y359868D01*
X147400Y359796D01*
X147418Y359788D01*
X147433Y359775D01*
X147529Y359736D01*
X147623Y359693D01*
X147643Y359691D01*
X147661Y359683D01*
X147828Y359665D01*
X171958Y359665D01*
X174562Y357061D01*
X181834Y349789D01*
X181892Y349747D01*
X181944Y349698D01*
X181991Y349676D01*
X182033Y349646D01*
X182102Y349625D01*
X182167Y349594D01*
X182219Y349589D01*
X182269Y349573D01*
X182340Y349575D01*
X182411Y349567D01*
X182462Y349578D01*
X182514Y349580D01*
X182582Y349604D01*
X182652Y349620D01*
X182697Y349646D01*
X182745Y349664D01*
X182801Y349709D01*
X182863Y349746D01*
X182897Y349785D01*
X182937Y349818D01*
X182976Y349878D01*
X183023Y349933D01*
X183042Y349981D01*
X183070Y350025D01*
X183088Y350094D01*
X183115Y350161D01*
X183123Y350232D01*
X183131Y350263D01*
X183129Y350287D01*
X183133Y350328D01*
X183133Y353604D01*
X184591Y355062D01*
X184602Y355078D01*
X184618Y355090D01*
X184674Y355178D01*
X184734Y355261D01*
X184740Y355280D01*
X184751Y355297D01*
X184776Y355398D01*
X184806Y355497D01*
X184806Y355516D01*
X184811Y355536D01*
X184803Y355639D01*
X184800Y355742D01*
X184793Y355761D01*
X184792Y355781D01*
X184751Y355876D01*
X184716Y355973D01*
X184703Y355989D01*
X184695Y356007D01*
X184591Y356138D01*
X183133Y357596D01*
X183133Y366304D01*
X184402Y367573D01*
X184414Y367589D01*
X184429Y367602D01*
X184485Y367689D01*
X184545Y367773D01*
X184551Y367792D01*
X184562Y367809D01*
X184587Y367909D01*
X184618Y368008D01*
X184617Y368028D01*
X184622Y368047D01*
X184614Y368150D01*
X184611Y368254D01*
X184605Y368273D01*
X184603Y368292D01*
X184563Y368387D01*
X184527Y368485D01*
X184515Y368500D01*
X184507Y368519D01*
X184402Y368650D01*
X163385Y389666D01*
X160558Y392493D01*
X127538Y425513D01*
X127522Y425525D01*
X127510Y425541D01*
X127422Y425597D01*
X127339Y425657D01*
X127320Y425663D01*
X127303Y425674D01*
X127202Y425699D01*
X127103Y425729D01*
X127084Y425729D01*
X127064Y425734D01*
X126961Y425726D01*
X126858Y425723D01*
X126839Y425716D01*
X126819Y425714D01*
X126724Y425674D01*
X126627Y425638D01*
X126611Y425626D01*
X126593Y425618D01*
X126462Y425513D01*
X93188Y392239D01*
X93135Y392165D01*
X93075Y392096D01*
X93063Y392066D01*
X93044Y392040D01*
X93017Y391953D01*
X92983Y391868D01*
X92979Y391827D01*
X92972Y391804D01*
X92973Y391772D01*
X92965Y391701D01*
X92965Y354551D01*
X92979Y354461D01*
X92987Y354370D01*
X92999Y354340D01*
X93004Y354308D01*
X93047Y354227D01*
X93083Y354144D01*
X93109Y354112D01*
X93120Y354091D01*
X93143Y354069D01*
X93188Y354013D01*
X118809Y328392D01*
X118883Y328339D01*
X118952Y328279D01*
X118982Y328267D01*
X119008Y328248D01*
X119095Y328221D01*
X119180Y328187D01*
X119221Y328183D01*
X119244Y328176D01*
X119276Y328177D01*
X119347Y328169D01*
X121314Y328169D01*
X121404Y328183D01*
G37*
%LPC*%
G36*
X152255Y465073D02*
X152255Y465073D01*
X149641Y466156D01*
X147899Y467898D01*
X147825Y467951D01*
X147755Y468011D01*
X147725Y468023D01*
X147699Y468042D01*
X147612Y468069D01*
X147527Y468103D01*
X147486Y468107D01*
X147464Y468114D01*
X147432Y468113D01*
X147360Y468121D01*
X140810Y468121D01*
X123395Y485536D01*
X123321Y485589D01*
X123294Y485613D01*
X121659Y487248D01*
X121659Y503352D01*
X123148Y504841D01*
X136252Y504841D01*
X137741Y503352D01*
X137741Y487248D01*
X136167Y485673D01*
X136133Y485661D01*
X136093Y485629D01*
X136047Y485604D01*
X135997Y485552D01*
X135941Y485508D01*
X135913Y485464D01*
X135877Y485426D01*
X135847Y485361D01*
X135808Y485301D01*
X135796Y485250D01*
X135774Y485203D01*
X135766Y485132D01*
X135748Y485062D01*
X135752Y485010D01*
X135747Y484959D01*
X135762Y484888D01*
X135768Y484817D01*
X135788Y484769D01*
X135799Y484718D01*
X135836Y484657D01*
X135864Y484591D01*
X135909Y484535D01*
X135925Y484507D01*
X135943Y484492D01*
X135969Y484460D01*
X143955Y476474D01*
X144029Y476421D01*
X144098Y476361D01*
X144128Y476349D01*
X144154Y476330D01*
X144241Y476303D01*
X144326Y476269D01*
X144367Y476265D01*
X144390Y476258D01*
X144422Y476259D01*
X144493Y476251D01*
X147360Y476251D01*
X147451Y476265D01*
X147541Y476273D01*
X147571Y476285D01*
X147603Y476290D01*
X147684Y476333D01*
X147768Y476369D01*
X147800Y476395D01*
X147821Y476406D01*
X147843Y476429D01*
X147899Y476474D01*
X149641Y478216D01*
X152255Y479299D01*
X155085Y479299D01*
X157699Y478216D01*
X159441Y476474D01*
X159515Y476421D01*
X159585Y476361D01*
X159615Y476349D01*
X159641Y476330D01*
X159728Y476303D01*
X159813Y476269D01*
X159854Y476265D01*
X159876Y476258D01*
X159908Y476259D01*
X159980Y476251D01*
X206281Y476251D01*
X206352Y476262D01*
X206424Y476264D01*
X206472Y476282D01*
X206524Y476290D01*
X206587Y476324D01*
X206655Y476349D01*
X206695Y476381D01*
X206741Y476406D01*
X206791Y476458D01*
X206847Y476502D01*
X206875Y476546D01*
X206911Y476584D01*
X206941Y476649D01*
X206980Y476709D01*
X206992Y476760D01*
X207014Y476807D01*
X207022Y476878D01*
X207040Y476948D01*
X207036Y477000D01*
X207041Y477051D01*
X207026Y477122D01*
X207020Y477193D01*
X207000Y477241D01*
X206989Y477292D01*
X206952Y477353D01*
X206924Y477419D01*
X206879Y477475D01*
X206863Y477503D01*
X206845Y477518D01*
X206819Y477550D01*
X205295Y479074D01*
X202691Y481678D01*
X202691Y484998D01*
X202688Y485018D01*
X202690Y485037D01*
X202668Y485139D01*
X202652Y485241D01*
X202642Y485258D01*
X202638Y485278D01*
X202585Y485367D01*
X202536Y485458D01*
X202522Y485472D01*
X202512Y485489D01*
X202433Y485556D01*
X202358Y485628D01*
X202340Y485636D01*
X202325Y485649D01*
X202229Y485688D01*
X202135Y485731D01*
X202115Y485733D01*
X202097Y485741D01*
X201930Y485759D01*
X199348Y485759D01*
X197859Y487248D01*
X197859Y503352D01*
X199348Y504841D01*
X212452Y504841D01*
X213941Y503352D01*
X213941Y487248D01*
X212452Y485759D01*
X211945Y485759D01*
X211874Y485748D01*
X211802Y485746D01*
X211754Y485728D01*
X211702Y485720D01*
X211639Y485686D01*
X211571Y485661D01*
X211531Y485629D01*
X211485Y485604D01*
X211435Y485552D01*
X211379Y485508D01*
X211351Y485464D01*
X211315Y485426D01*
X211285Y485361D01*
X211246Y485301D01*
X211234Y485250D01*
X211212Y485203D01*
X211204Y485132D01*
X211186Y485062D01*
X211190Y485010D01*
X211185Y484959D01*
X211200Y484888D01*
X211206Y484817D01*
X211226Y484769D01*
X211237Y484718D01*
X211274Y484657D01*
X211302Y484591D01*
X211347Y484535D01*
X211363Y484507D01*
X211381Y484492D01*
X211407Y484460D01*
X213805Y482062D01*
X213879Y482009D01*
X213948Y481949D01*
X213978Y481937D01*
X214004Y481918D01*
X214092Y481891D01*
X214176Y481857D01*
X214217Y481853D01*
X214240Y481846D01*
X214272Y481847D01*
X214343Y481839D01*
X232697Y481839D01*
X232787Y481853D01*
X232878Y481861D01*
X232908Y481873D01*
X232940Y481878D01*
X233020Y481921D01*
X233104Y481957D01*
X233136Y481983D01*
X233157Y481994D01*
X233179Y482017D01*
X233235Y482062D01*
X249776Y498603D01*
X272298Y498603D01*
X272318Y498606D01*
X272337Y498604D01*
X272439Y498626D01*
X272541Y498642D01*
X272558Y498652D01*
X272578Y498656D01*
X272667Y498709D01*
X272758Y498758D01*
X272772Y498772D01*
X272789Y498782D01*
X272856Y498861D01*
X272928Y498936D01*
X272936Y498954D01*
X272949Y498969D01*
X272988Y499065D01*
X273031Y499159D01*
X273033Y499179D01*
X273041Y499197D01*
X273059Y499364D01*
X273059Y502352D01*
X274548Y503841D01*
X288652Y503841D01*
X290141Y502352D01*
X290141Y488248D01*
X288652Y486759D01*
X274548Y486759D01*
X273059Y488248D01*
X273059Y489712D01*
X273056Y489732D01*
X273058Y489751D01*
X273036Y489853D01*
X273020Y489955D01*
X273010Y489972D01*
X273006Y489992D01*
X272953Y490081D01*
X272904Y490172D01*
X272890Y490186D01*
X272880Y490203D01*
X272801Y490270D01*
X272726Y490342D01*
X272708Y490350D01*
X272693Y490363D01*
X272597Y490402D01*
X272503Y490445D01*
X272483Y490447D01*
X272465Y490455D01*
X272298Y490473D01*
X253459Y490473D01*
X253369Y490459D01*
X253278Y490451D01*
X253248Y490439D01*
X253216Y490434D01*
X253136Y490391D01*
X253052Y490355D01*
X253020Y490329D01*
X252999Y490318D01*
X252977Y490295D01*
X252921Y490250D01*
X240221Y477550D01*
X240179Y477492D01*
X240129Y477440D01*
X240107Y477393D01*
X240077Y477351D01*
X240056Y477282D01*
X240026Y477217D01*
X240020Y477165D01*
X240005Y477115D01*
X240007Y477044D01*
X239999Y476973D01*
X240010Y476922D01*
X240011Y476870D01*
X240036Y476802D01*
X240051Y476732D01*
X240078Y476687D01*
X240096Y476639D01*
X240140Y476583D01*
X240177Y476521D01*
X240217Y476487D01*
X240249Y476447D01*
X240310Y476408D01*
X240364Y476361D01*
X240412Y476342D01*
X240456Y476314D01*
X240526Y476296D01*
X240592Y476269D01*
X240664Y476261D01*
X240695Y476253D01*
X240718Y476255D01*
X240759Y476251D01*
X288577Y476251D01*
X288667Y476265D01*
X288758Y476273D01*
X288788Y476285D01*
X288820Y476290D01*
X288900Y476333D01*
X288984Y476369D01*
X289016Y476395D01*
X289037Y476406D01*
X289059Y476429D01*
X289115Y476474D01*
X297464Y484823D01*
X297517Y484897D01*
X297577Y484966D01*
X297589Y484996D01*
X297608Y485022D01*
X297635Y485109D01*
X297669Y485194D01*
X297673Y485235D01*
X297680Y485258D01*
X297679Y485290D01*
X297687Y485361D01*
X297687Y485998D01*
X297684Y486018D01*
X297686Y486037D01*
X297664Y486139D01*
X297648Y486241D01*
X297638Y486258D01*
X297634Y486278D01*
X297581Y486367D01*
X297532Y486458D01*
X297518Y486472D01*
X297508Y486489D01*
X297429Y486556D01*
X297354Y486628D01*
X297336Y486636D01*
X297321Y486649D01*
X297225Y486688D01*
X297131Y486731D01*
X297111Y486733D01*
X297093Y486741D01*
X296926Y486759D01*
X295548Y486759D01*
X294059Y488248D01*
X294059Y502352D01*
X295548Y503841D01*
X309652Y503841D01*
X311141Y502352D01*
X311141Y488248D01*
X309652Y486759D01*
X306578Y486759D01*
X306558Y486756D01*
X306539Y486758D01*
X306437Y486736D01*
X306335Y486720D01*
X306318Y486710D01*
X306298Y486706D01*
X306209Y486653D01*
X306118Y486604D01*
X306104Y486590D01*
X306087Y486580D01*
X306020Y486501D01*
X305948Y486426D01*
X305940Y486408D01*
X305927Y486393D01*
X305888Y486297D01*
X305845Y486203D01*
X305843Y486183D01*
X305835Y486165D01*
X305817Y485998D01*
X305817Y481678D01*
X292260Y468121D01*
X159980Y468121D01*
X159889Y468107D01*
X159799Y468099D01*
X159769Y468087D01*
X159737Y468082D01*
X159656Y468039D01*
X159572Y468003D01*
X159540Y467977D01*
X159519Y467966D01*
X159497Y467943D01*
X159441Y467898D01*
X157699Y466156D01*
X155085Y465073D01*
X152255Y465073D01*
G37*
%LPD*%
%LPC*%
G36*
X143148Y485759D02*
X143148Y485759D01*
X141659Y487248D01*
X141659Y503352D01*
X142639Y504332D01*
X142651Y504348D01*
X142666Y504361D01*
X142722Y504448D01*
X142782Y504532D01*
X142788Y504551D01*
X142799Y504568D01*
X142824Y504668D01*
X142855Y504767D01*
X142854Y504787D01*
X142859Y504806D01*
X142851Y504909D01*
X142848Y505013D01*
X142842Y505032D01*
X142840Y505051D01*
X142800Y505146D01*
X142764Y505244D01*
X142752Y505259D01*
X142744Y505278D01*
X142639Y505409D01*
X141033Y507014D01*
X140959Y507067D01*
X140890Y507127D01*
X140860Y507139D01*
X140834Y507158D01*
X140747Y507185D01*
X140662Y507219D01*
X140621Y507223D01*
X140598Y507230D01*
X140566Y507229D01*
X140495Y507237D01*
X60673Y507237D01*
X60583Y507223D01*
X60492Y507215D01*
X60462Y507203D01*
X60430Y507198D01*
X60350Y507155D01*
X60266Y507119D01*
X60233Y507093D01*
X60213Y507082D01*
X60191Y507059D01*
X60135Y507014D01*
X58261Y505140D01*
X58219Y505082D01*
X58169Y505030D01*
X58147Y504983D01*
X58117Y504941D01*
X58096Y504872D01*
X58066Y504807D01*
X58060Y504755D01*
X58045Y504705D01*
X58047Y504634D01*
X58039Y504563D01*
X58050Y504512D01*
X58051Y504460D01*
X58076Y504392D01*
X58091Y504322D01*
X58118Y504277D01*
X58136Y504229D01*
X58180Y504173D01*
X58217Y504111D01*
X58257Y504077D01*
X58289Y504037D01*
X58350Y503998D01*
X58404Y503951D01*
X58452Y503932D01*
X58496Y503904D01*
X58566Y503886D01*
X58632Y503859D01*
X58704Y503851D01*
X58735Y503843D01*
X58758Y503845D01*
X58799Y503841D01*
X60052Y503841D01*
X61541Y502352D01*
X61541Y488248D01*
X60052Y486759D01*
X45948Y486759D01*
X44459Y488248D01*
X44459Y502352D01*
X45948Y503841D01*
X48260Y503841D01*
X48280Y503844D01*
X48299Y503842D01*
X48401Y503864D01*
X48503Y503880D01*
X48520Y503890D01*
X48540Y503894D01*
X48629Y503947D01*
X48720Y503996D01*
X48734Y504010D01*
X48751Y504020D01*
X48818Y504099D01*
X48890Y504174D01*
X48898Y504192D01*
X48911Y504207D01*
X48950Y504303D01*
X48993Y504397D01*
X48995Y504417D01*
X49003Y504435D01*
X49021Y504602D01*
X49021Y507398D01*
X56990Y515367D01*
X144178Y515367D01*
X154481Y505064D01*
X154555Y505011D01*
X154624Y504951D01*
X154654Y504939D01*
X154680Y504920D01*
X154767Y504893D01*
X154852Y504859D01*
X154893Y504855D01*
X154916Y504848D01*
X154948Y504849D01*
X155019Y504841D01*
X156252Y504841D01*
X157741Y503352D01*
X157741Y487248D01*
X156252Y485759D01*
X143148Y485759D01*
G37*
%LPD*%
%LPC*%
G36*
X141223Y115823D02*
X141223Y115823D01*
X141223Y136341D01*
X159534Y136341D01*
X160181Y136168D01*
X160760Y135833D01*
X161233Y135360D01*
X161568Y134781D01*
X161741Y134134D01*
X161741Y115823D01*
X141223Y115823D01*
G37*
%LPD*%
%LPC*%
G36*
X117659Y115823D02*
X117659Y115823D01*
X117659Y134134D01*
X117832Y134781D01*
X118167Y135360D01*
X118640Y135833D01*
X119219Y136168D01*
X119866Y136341D01*
X138177Y136341D01*
X138177Y115823D01*
X117659Y115823D01*
G37*
%LPD*%
%LPC*%
G36*
X141223Y92259D02*
X141223Y92259D01*
X141223Y112777D01*
X161741Y112777D01*
X161741Y94466D01*
X161568Y93819D01*
X161233Y93240D01*
X160760Y92767D01*
X160181Y92432D01*
X159534Y92259D01*
X141223Y92259D01*
G37*
%LPD*%
%LPC*%
G36*
X119866Y92259D02*
X119866Y92259D01*
X119219Y92432D01*
X118640Y92767D01*
X118167Y93240D01*
X117832Y93819D01*
X117659Y94466D01*
X117659Y112777D01*
X138177Y112777D01*
X138177Y92259D01*
X119866Y92259D01*
G37*
%LPD*%
%LPC*%
G36*
X192023Y238623D02*
X192023Y238623D01*
X192023Y246141D01*
X198334Y246141D01*
X198981Y245968D01*
X199560Y245633D01*
X200033Y245160D01*
X200368Y244581D01*
X200541Y243934D01*
X200541Y238623D01*
X192023Y238623D01*
G37*
%LPD*%
%LPC*%
G36*
X268223Y238623D02*
X268223Y238623D01*
X268223Y246141D01*
X274534Y246141D01*
X275181Y245968D01*
X275760Y245633D01*
X276233Y245160D01*
X276568Y244581D01*
X276741Y243934D01*
X276741Y238623D01*
X268223Y238623D01*
G37*
%LPD*%
%LPC*%
G36*
X180459Y238623D02*
X180459Y238623D01*
X180459Y243934D01*
X180632Y244581D01*
X180967Y245160D01*
X181440Y245633D01*
X182019Y245968D01*
X182666Y246141D01*
X188977Y246141D01*
X188977Y238623D01*
X180459Y238623D01*
G37*
%LPD*%
%LPC*%
G36*
X256659Y238623D02*
X256659Y238623D01*
X256659Y243934D01*
X256832Y244581D01*
X257167Y245160D01*
X257640Y245633D01*
X258219Y245968D01*
X258866Y246141D01*
X265177Y246141D01*
X265177Y238623D01*
X256659Y238623D01*
G37*
%LPD*%
%LPC*%
G36*
X227423Y496823D02*
X227423Y496823D01*
X227423Y504841D01*
X231734Y504841D01*
X232381Y504668D01*
X232960Y504333D01*
X233433Y503860D01*
X233768Y503281D01*
X233941Y502634D01*
X233941Y496823D01*
X227423Y496823D01*
G37*
%LPD*%
%LPC*%
G36*
X227423Y485759D02*
X227423Y485759D01*
X227423Y493777D01*
X233941Y493777D01*
X233941Y487966D01*
X233768Y487319D01*
X233433Y486740D01*
X232960Y486267D01*
X232381Y485932D01*
X231734Y485759D01*
X227423Y485759D01*
G37*
%LPD*%
%LPC*%
G36*
X217859Y496823D02*
X217859Y496823D01*
X217859Y502634D01*
X218032Y503281D01*
X218367Y503860D01*
X218840Y504333D01*
X219419Y504668D01*
X220066Y504841D01*
X224377Y504841D01*
X224377Y496823D01*
X217859Y496823D01*
G37*
%LPD*%
%LPC*%
G36*
X220066Y485759D02*
X220066Y485759D01*
X219419Y485932D01*
X218840Y486267D01*
X218367Y486740D01*
X218032Y487319D01*
X217859Y487966D01*
X217859Y493777D01*
X224377Y493777D01*
X224377Y485759D01*
X220066Y485759D01*
G37*
%LPD*%
%LPC*%
G36*
X135889Y363473D02*
X135889Y363473D01*
X135889Y367793D01*
X144860Y367793D01*
X145507Y367620D01*
X146086Y367285D01*
X146559Y366812D01*
X146894Y366233D01*
X147067Y365586D01*
X147067Y363473D01*
X135889Y363473D01*
G37*
%LPD*%
%LPC*%
G36*
X121665Y363473D02*
X121665Y363473D01*
X121665Y365586D01*
X121838Y366233D01*
X122173Y366812D01*
X122646Y367285D01*
X123225Y367620D01*
X123872Y367793D01*
X132843Y367793D01*
X132843Y363473D01*
X121665Y363473D01*
G37*
%LPD*%
%LPC*%
G36*
X225899Y495299D02*
X225899Y495299D01*
X225899Y495301D01*
X225901Y495301D01*
X225901Y495299D01*
X225899Y495299D01*
G37*
%LPD*%
%LPC*%
G36*
X139699Y114299D02*
X139699Y114299D01*
X139699Y114301D01*
X139701Y114301D01*
X139701Y114299D01*
X139699Y114299D01*
G37*
%LPD*%
D10*
X139700Y114300D03*
D11*
X221700Y114300D03*
X57700Y114300D03*
D12*
X190500Y220100D03*
X190500Y237100D03*
X266700Y220100D03*
X266700Y237100D03*
D13*
X134366Y361950D03*
X195834Y361950D03*
X134366Y349250D03*
X134366Y336550D03*
X195834Y349250D03*
X195834Y336550D03*
X134366Y323850D03*
X195834Y323850D03*
D14*
X53000Y495300D03*
X74000Y495300D03*
X281600Y495300D03*
X302600Y495300D03*
D15*
X218600Y419100D03*
X238600Y419100D03*
D16*
X266700Y332900D03*
X266700Y352900D03*
D15*
X225900Y495300D03*
X205900Y495300D03*
X129700Y495300D03*
X149700Y495300D03*
D17*
X53086Y497332D02*
X53086Y505714D01*
X58674Y511302D01*
X142494Y511302D01*
X150876Y502920D01*
X150876Y497332D01*
X53086Y497332D02*
X53000Y495300D01*
X149700Y495300D02*
X150876Y497332D01*
X301752Y494538D02*
X301752Y483362D01*
X290576Y472186D01*
X153670Y472186D02*
X142494Y472186D01*
X153670Y472186D02*
X290576Y472186D01*
X142494Y472186D02*
X125730Y488950D01*
X125730Y491744D01*
X128524Y494538D01*
X301752Y494538D02*
X302600Y495300D01*
X129700Y495300D02*
X128524Y494538D01*
X136906Y338074D02*
X153670Y338074D01*
X136906Y338074D02*
X134366Y336550D01*
D18*
X153670Y338074D03*
X153670Y472186D03*
D17*
X251460Y494538D02*
X279400Y494538D01*
X251460Y494538D02*
X234696Y477774D01*
X212344Y477774D01*
X206756Y483362D01*
X206756Y494538D01*
X279400Y494538D02*
X281600Y495300D01*
X206756Y494538D02*
X205900Y495300D01*
D18*
X76200Y406400D03*
X114300Y381000D03*
D17*
X212344Y332486D02*
X215138Y332486D01*
X265430Y332486D01*
X212344Y332486D02*
X206756Y338074D01*
X198374Y338074D01*
X265430Y332486D02*
X266700Y332900D01*
X198374Y338074D02*
X195834Y336550D01*
X192786Y220726D02*
X201168Y220726D01*
X215138Y234696D01*
X215138Y332486D01*
X192786Y220726D02*
X190500Y220100D01*
X195834Y336550D02*
X190500Y341884D01*
X183991Y341884D01*
X170275Y355600D01*
X147225Y355600D02*
X146209Y354584D01*
X139700Y354584D01*
X134366Y349250D01*
X147225Y355600D02*
X170275Y355600D01*
X209550Y352044D02*
X217932Y352044D01*
X265430Y352044D01*
X209550Y352044D02*
X206756Y349250D01*
X195834Y349250D01*
X265430Y352044D02*
X266700Y352900D01*
X217932Y352044D02*
X217932Y419100D01*
X218600Y419100D01*
X266700Y220100D02*
X249800Y203200D01*
X152400Y203200D01*
X152400Y280416D02*
X195834Y323850D01*
X152400Y280416D02*
X152400Y203200D01*
X86614Y114554D02*
X58674Y114554D01*
X86614Y114554D02*
X114554Y142494D01*
X184404Y142494D01*
X212344Y114554D01*
X220726Y114554D01*
X58674Y114554D02*
X57700Y114300D01*
X220726Y114554D02*
X221700Y114300D01*
X75438Y483362D02*
X75438Y494538D01*
X164846Y393954D02*
X192786Y366014D01*
X164846Y393954D02*
X127000Y431800D01*
X75438Y483362D01*
X192786Y366014D02*
X192786Y363220D01*
X195580Y360426D01*
X75438Y494538D02*
X74000Y495300D01*
X195834Y361950D02*
X195580Y360426D01*
X237490Y419100D02*
X237490Y433070D01*
X234696Y435864D01*
X206756Y435864D01*
X164846Y393954D01*
X237490Y419100D02*
X238600Y419100D01*
X134112Y324104D02*
X117348Y324104D01*
X134112Y324104D02*
X134366Y323850D01*
X114554Y321310D02*
X114554Y142494D01*
X114554Y321310D02*
X117348Y324104D01*
X88900Y352552D02*
X88900Y393700D01*
X127000Y431800D01*
X88900Y352552D02*
X117348Y324104D01*
M02*
