G04 EAGLE Gerber RS-274X export*
G75*
%MOMM*%
%FSLAX34Y34*%
%LPD*%
%IN*%
%IPPOS*%
%AMOC8*
5,1,8,0,0,1.08239X$1,22.5*%
G01*
%ADD10C,0.254000*%


D10*
X12700Y0D02*
X339600Y0D01*
X339600Y546000D01*
X12700Y546000D01*
X12700Y0D01*
X45520Y19829D02*
X45443Y18850D01*
X45289Y17880D01*
X45060Y16924D01*
X44756Y15990D01*
X44381Y15083D01*
X43935Y14208D01*
X43421Y13370D01*
X42844Y12575D01*
X42206Y11828D01*
X41512Y11134D01*
X40765Y10496D01*
X39970Y9919D01*
X39132Y9405D01*
X38257Y8959D01*
X37350Y8584D01*
X36416Y8280D01*
X35461Y8051D01*
X34490Y7897D01*
X33511Y7820D01*
X32529Y7820D01*
X31550Y7897D01*
X30580Y8051D01*
X29624Y8280D01*
X28690Y8584D01*
X27783Y8959D01*
X26908Y9405D01*
X26070Y9919D01*
X25275Y10496D01*
X24528Y11134D01*
X23834Y11828D01*
X23196Y12575D01*
X22619Y13370D01*
X22105Y14208D01*
X21659Y15083D01*
X21284Y15990D01*
X20980Y16924D01*
X20751Y17880D01*
X20597Y18850D01*
X20520Y19829D01*
X20520Y20811D01*
X20597Y21790D01*
X20751Y22761D01*
X20980Y23716D01*
X21284Y24650D01*
X21659Y25557D01*
X22105Y26432D01*
X22619Y27270D01*
X23196Y28065D01*
X23834Y28812D01*
X24528Y29506D01*
X25275Y30144D01*
X26070Y30721D01*
X26908Y31235D01*
X27783Y31681D01*
X28690Y32056D01*
X29624Y32360D01*
X30580Y32589D01*
X31550Y32743D01*
X32529Y32820D01*
X33511Y32820D01*
X34490Y32743D01*
X35461Y32589D01*
X36416Y32360D01*
X37350Y32056D01*
X38257Y31681D01*
X39132Y31235D01*
X39970Y30721D01*
X40765Y30144D01*
X41512Y29506D01*
X42206Y28812D01*
X42844Y28065D01*
X43421Y27270D01*
X43935Y26432D01*
X44381Y25557D01*
X44756Y24650D01*
X45060Y23716D01*
X45289Y22761D01*
X45443Y21790D01*
X45520Y20811D01*
X45520Y19829D01*
X335000Y527749D02*
X334923Y526770D01*
X334769Y525800D01*
X334540Y524844D01*
X334236Y523910D01*
X333861Y523003D01*
X333415Y522128D01*
X332901Y521290D01*
X332324Y520495D01*
X331686Y519748D01*
X330992Y519054D01*
X330245Y518416D01*
X329450Y517839D01*
X328612Y517325D01*
X327737Y516879D01*
X326830Y516504D01*
X325896Y516200D01*
X324941Y515971D01*
X323970Y515817D01*
X322991Y515740D01*
X322009Y515740D01*
X321030Y515817D01*
X320060Y515971D01*
X319104Y516200D01*
X318170Y516504D01*
X317263Y516879D01*
X316388Y517325D01*
X315550Y517839D01*
X314755Y518416D01*
X314008Y519054D01*
X313314Y519748D01*
X312676Y520495D01*
X312099Y521290D01*
X311585Y522128D01*
X311139Y523003D01*
X310764Y523910D01*
X310460Y524844D01*
X310231Y525800D01*
X310077Y526770D01*
X310000Y527749D01*
X310000Y528731D01*
X310077Y529710D01*
X310231Y530681D01*
X310460Y531636D01*
X310764Y532570D01*
X311139Y533477D01*
X311585Y534352D01*
X312099Y535190D01*
X312676Y535985D01*
X313314Y536732D01*
X314008Y537426D01*
X314755Y538064D01*
X315550Y538641D01*
X316388Y539155D01*
X317263Y539601D01*
X318170Y539976D01*
X319104Y540280D01*
X320060Y540509D01*
X321030Y540663D01*
X322009Y540740D01*
X322991Y540740D01*
X323970Y540663D01*
X324941Y540509D01*
X325896Y540280D01*
X326830Y539976D01*
X327737Y539601D01*
X328612Y539155D01*
X329450Y538641D01*
X330245Y538064D01*
X330992Y537426D01*
X331686Y536732D01*
X332324Y535985D01*
X332901Y535190D01*
X333415Y534352D01*
X333861Y533477D01*
X334236Y532570D01*
X334540Y531636D01*
X334769Y530681D01*
X334923Y529710D01*
X335000Y528731D01*
X335000Y527749D01*
M02*
